<svg width="40" height="40" viewBox="0 0 40 40" fill="none" xmlns="http://www.w3.org/2000/svg">
    <path fill-rule="evenodd" clip-rule="evenodd" d="M20.4651 40.0034C31.296 39.7562 40 30.8969 40 20.0044C40 8.95625 31.0457 0 20 0C8.9543 0 0 8.95625 0 20.0044C0 26.044 2.67593 31.4584 6.90662 35.1264C7.7265 32.8716 8.46153 30.8012 9.14849 28.8662L9.1485 28.8661C10.0459 26.3383 10.8613 24.0415 11.6767 21.8666C11.4257 21.9767 11.2397 22.128 11.0546 22.2786L11.0546 22.2786C10.3868 22.8217 9.73058 23.3555 6.08032 21.9123C6.56901 21.4081 6.99148 20.9166 7.38506 20.4587C8.96454 18.6211 10.0787 17.3249 13.1403 17.917C14.5073 14.0048 11.718 9.12324 7.46342 12.4899C11.4766 7.33115 15.8332 8.1772 18.2361 11.6252C17.3441 7.23975 13.3768 4.26789 7.91721 8.63032C15.4722 -2.85105 25.901 6.51188 25.011 18.416C29.5637 20.8584 34.2772 23.4094 35.8133 24.3178C34.621 26.7281 33.8288 28.3119 33.338 29.2866C32.9302 30.0964 32.1005 30.6017 31.1938 30.6017H30.4279C29.7927 32.6591 28.6241 35.6303 26.9845 36.489C28.0993 33.7015 27.3025 33.1802 26.4161 32.6003C25.8298 32.2166 25.2043 31.8074 25.0672 30.6995C22.91 30.9745 20.8768 31.8648 19.9326 33.8076C19.0502 35.6231 18.7944 37.8661 20.4651 40.0034ZM24.4866 20.789C24.4547 21.4687 23.8779 21.9938 23.1982 21.962C22.5186 21.9301 21.9934 21.3533 22.0253 20.6736C22.0571 19.9939 22.6339 19.4688 23.3136 19.5006C23.9933 19.5325 24.5184 20.1093 24.4866 20.789Z" fill="#D0FF12"/>
</svg>
