<svg width="24" height="24" viewBox="0 0 24 24" fill="none" xmlns="http://www.w3.org/2000/svg">
<path fill-rule="evenodd" clip-rule="evenodd" d="M3.7498 2.80005C3.29894 2.80005 2.86653 2.97916 2.54772 3.29797C2.22891 3.61678 2.0498 4.04918 2.0498 4.50005V16.5C2.0498 16.8661 2.26009 17.1995 2.59038 17.3573C2.92067 17.515 3.31221 17.469 3.5969 17.239L6.5498 14.8528V17.25C6.5498 17.7009 6.72891 18.1333 7.04772 18.4521C7.36654 18.7709 7.79894 18.95 8.2498 18.95H16.9514L20.4027 21.739C20.6874 21.969 21.0789 22.015 21.4092 21.8573C21.7395 21.6995 21.9498 21.3661 21.9498 21V9.00005C21.9498 8.54918 21.7707 8.11678 21.4519 7.79797C21.1331 7.47916 20.7007 7.30005 20.2498 7.30005H17.4498V4.50005C17.4498 4.04918 17.2707 3.61678 16.9519 3.29797C16.6331 2.97916 16.2007 2.80005 15.7498 2.80005H3.7498ZM15.75 7.66663V4.5L3.75 4.5V4.50005L15.7498 4.50005V7.66688C15.7499 7.6668 15.7499 7.66672 15.75 7.66663ZM15.7498 8.25005C15.7498 8.24427 15.7499 8.2385 15.75 8.23275V8.25V8.26734C15.7499 8.26159 15.7498 8.25583 15.7498 8.25005ZM15.5498 8.25005V4.70005L3.9498 4.70005L3.9498 14.511L6.11521 12.7611C6.28424 12.6246 6.49499 12.55 6.7123 12.55H7.4998H15.5498V8.25005ZM8.4498 14.25V14.25H15.75C15.8554 14.25 15.9596 14.2389 16.0612 14.2174C15.9596 14.2389 15.8553 14.25 15.7498 14.25H8.4498ZM6.7498 14.6911V17.25C6.7498 17.6479 6.90784 18.0294 7.18914 18.3107C7.47045 18.592 7.85198 18.75 8.2498 18.75H17.0221L20.5284 21.5834C20.7006 21.7225 20.9222 21.7764 21.1336 21.738C20.9222 21.7763 20.7007 21.7224 20.5286 21.5833L17.0223 18.75H8.25C7.85218 18.75 7.47065 18.592 7.18934 18.3107C6.90804 18.0294 6.75 17.6478 6.75 17.25V14.691L6.7498 14.6911ZM20.2498 19.4295V9.00005H17.4498V9H20.25V19.4297L20.2498 19.4295ZM17.4498 9.20005H20.0498V19.011L17.8844 17.2611C17.7154 17.1246 17.5046 17.05 17.2873 17.05H8.4498V14.45H15.7498C16.2007 14.45 16.6331 14.2709 16.9519 13.9521C17.2707 13.6333 17.4498 13.2009 17.4498 12.75V9.20005ZM15.75 8.83347V12.75H15.7498V8.83321C15.7499 8.8333 15.7499 8.83338 15.75 8.83347ZM3.18037 17.228C3.01472 17.269 2.83665 17.2531 2.67677 17.1768C2.41601 17.0522 2.25 16.789 2.25 16.5V4.5C2.25 4.10217 2.40804 3.72064 2.68934 3.43934C2.88381 3.24487 3.12618 3.10931 3.38873 3.04415C3.12611 3.10929 2.88366 3.24487 2.68914 3.43939C2.40784 3.72069 2.2498 4.10222 2.2498 4.50005V16.5C2.2498 16.789 2.41582 17.0523 2.67657 17.1768C2.83652 17.2532 3.01466 17.2691 3.18037 17.228ZM3.75 14.9296V14.9297L6.24111 12.9167C6.31394 12.8578 6.39659 12.8135 6.48454 12.7855C6.39652 12.8135 6.3138 12.8578 6.24091 12.9167L3.75 14.9296Z" fill="white"/>
</svg>
