<svg width="24" height="24" viewBox="0 0 24 24" fill="none" xmlns="http://www.w3.org/2000/svg">
    <path fill-rule="evenodd" clip-rule="evenodd" d="M3.75 3C3.35217 3 2.97064 3.15804 2.68934 3.43934C2.40804 3.72064 2.25 4.10217 2.25 4.5V16.5C2.25 16.789 2.41601 17.0522 2.67677 17.1768C2.93752 17.3013 3.24663 17.265 3.47139 17.0833L6.75 14.434V17.25C6.75 17.6478 6.90804 18.0294 7.18934 18.3107C7.47065 18.592 7.85218 18.75 8.25 18.75H17.0223L20.5286 21.5833C20.7534 21.765 21.0625 21.8013 21.3232 21.6768C21.584 21.5522 21.75 21.289 21.75 21V9C21.75 8.60218 21.592 8.22065 21.3107 7.93934C21.0294 7.65804 20.6478 7.5 20.25 7.5H17.25V4.5C17.25 4.10218 17.092 3.72065 16.8107 3.43934C16.5294 3.15804 16.1478 3 15.75 3H3.75ZM15.75 8.25V4.5L3.75 4.5L3.75 14.9297L6.24111 12.9167C6.37455 12.8088 6.54093 12.75 6.7125 12.75H7.5H15.75V8.25ZM8.25 14.25H15.75C16.1478 14.25 16.5294 14.092 16.8107 13.8107C17.092 13.5294 17.25 13.1478 17.25 12.75V9H20.25V19.4297L17.7589 17.4167C17.6254 17.3088 17.4591 17.25 17.2875 17.25H8.25V14.25Z" fill="white"/>
</svg>
