<svg width="396" height="143" viewBox="0 0 396 143" fill="none" xmlns="http://www.w3.org/2000/svg">
    <g clip-path="url(#clip0_187_23124)">
        <path d="M363.345 26.709V99.4442H331.95V26.709H299.844V1.7063H395.309V26.709H363.345Z" fill="#D0FF12"/>
        <path d="M271.863 99.4442L267.743 85.6643H233.507L229.387 99.4442H197.281L232.939 1.7063H269.448L305.105 99.4442H271.863ZM240.042 63.7869H261.209L250.98 28.982H250.412L240.042 63.7869Z" fill="#D0FF12"/>
        <path fill-rule="evenodd" clip-rule="evenodd" d="M70.4642 93.0551C77.4725 87.278 80.9767 78.2808 80.9767 66.0636V2.2782H80.5193H49.5812H28.0918V27.3522H49.5812V65.9215C49.5812 70.3727 48.7289 73.5454 47.0241 75.4396C45.4141 77.3337 42.9044 78.2808 39.4949 78.2808C36.0854 78.2808 33.5283 77.3337 31.8236 75.4396C30.2136 73.5454 29.4086 70.3727 29.4086 65.9215V64.785H0.00195312V66.0636C0.00195312 78.2808 3.45877 87.278 10.3724 93.0551C17.3807 98.8323 27.4197 101.721 40.4893 101.721C53.5589 101.721 63.5505 98.8323 70.4642 93.0551Z" fill="#D0FF12"/>
        <path fill-rule="evenodd" clip-rule="evenodd" d="M144.727 102.553C172.346 101.745 194.488 79.1022 194.488 51.2877C194.488 22.9622 171.525 -0.00012207 143.2 -0.00012207C114.874 -0.00012207 91.9121 22.9622 91.9121 51.2877C91.9121 67.9831 99.8894 82.8152 112.24 92.1805C114.33 86.447 116.191 81.2077 117.924 76.3265L117.924 76.326C120.082 70.2474 122.044 64.7243 124.005 59.4946C123.401 59.7593 122.954 60.1232 122.508 60.4853C120.902 61.7914 119.324 63.0748 110.544 59.6045C111.719 58.392 112.735 57.2101 113.682 56.1092L113.682 56.109L113.682 56.1089C117.482 51.6896 120.162 48.5723 127.528 49.9974C130.816 40.5897 124.107 28.8505 113.873 36.9466C123.524 24.5439 134 26.5747 139.78 34.8615C137.633 24.319 128.091 17.1771 114.962 27.6655C133.134 0.0562789 158.217 22.571 156.077 51.1969C167.027 57.0701 178.364 63.2045 182.059 65.389C179.191 71.1857 177.285 74.9945 176.105 77.3382C175.124 79.2852 173.129 80.5 170.949 80.5H169.106C167.578 85.4474 164.768 92.5922 160.824 94.6572C163.506 87.9541 161.589 86.7003 159.457 85.3058C158.047 84.3832 156.542 83.399 156.212 80.7346C151.025 81.3952 146.135 83.5353 143.863 88.2064C141.816 92.4159 141.17 97.5813 144.727 102.553ZM154.814 56.903C154.738 58.5374 153.351 59.8003 151.716 59.7236C150.082 59.647 148.819 58.2599 148.896 56.6255C148.972 54.9911 150.359 53.7283 151.994 53.8049C153.628 53.8815 154.891 55.2686 154.814 56.903Z" fill="#D0FF12"/>
    </g>
    <path d="M103.283 137.2C102.75 137.2 102.25 137.129 101.78 136.989C101.311 136.863 100.872 136.676 100.465 136.425C100.058 136.159 99.6907 135.838 99.362 135.463C99.0333 135.087 98.7438 134.672 98.4933 134.218L99.7141 132.951C99.9959 133.42 100.278 133.811 100.559 134.124C100.857 134.437 101.146 134.688 101.428 134.876C101.725 135.063 102.023 135.196 102.32 135.275C102.633 135.353 102.954 135.392 103.283 135.392C103.924 135.392 104.488 135.243 104.973 134.946C105.474 134.633 105.857 134.21 106.123 133.678C106.405 133.131 106.546 132.512 106.546 131.824V122.268H103.564V120.531H110.842V122.268H108.424V131.964C108.424 132.716 108.299 133.412 108.048 134.054C107.798 134.696 107.446 135.251 106.992 135.721C106.538 136.19 105.998 136.558 105.372 136.824C104.746 137.075 104.05 137.2 103.283 137.2ZM117.276 137.2C116.211 137.2 115.249 136.926 114.388 136.378C113.527 135.815 112.846 135.056 112.345 134.101C111.845 133.131 111.594 132.035 111.594 130.814C111.594 129.578 111.852 128.482 112.369 127.527C112.885 126.573 113.574 125.821 114.435 125.274C115.311 124.726 116.29 124.452 117.37 124.452C118.011 124.452 118.606 124.546 119.154 124.734C119.702 124.921 120.187 125.187 120.609 125.532C121.048 125.86 121.408 126.252 121.689 126.706C121.987 127.144 122.19 127.621 122.3 128.138L121.783 127.879L121.854 124.71H123.614V136.965H121.83V133.96L122.3 133.655C122.19 134.124 121.979 134.578 121.666 135.016C121.353 135.439 120.969 135.815 120.515 136.143C120.077 136.472 119.576 136.73 119.013 136.918C118.465 137.106 117.886 137.2 117.276 137.2ZM117.675 135.51C118.489 135.51 119.216 135.314 119.858 134.923C120.5 134.516 121.001 133.96 121.361 133.256C121.736 132.536 121.924 131.722 121.924 130.814C121.924 129.906 121.736 129.1 121.361 128.396C121.001 127.692 120.5 127.136 119.858 126.729C119.216 126.322 118.489 126.119 117.675 126.119C116.845 126.119 116.11 126.322 115.468 126.729C114.842 127.136 114.341 127.692 113.965 128.396C113.605 129.1 113.425 129.906 113.425 130.814C113.425 131.706 113.605 132.512 113.965 133.232C114.325 133.937 114.826 134.492 115.468 134.899C116.11 135.306 116.845 135.51 117.675 135.51ZM132.21 137.2C131.052 137.2 130.019 136.926 129.111 136.378C128.203 135.815 127.483 135.056 126.951 134.101C126.434 133.131 126.176 132.035 126.176 130.814C126.176 129.593 126.434 128.506 126.951 127.551C127.483 126.58 128.203 125.821 129.111 125.274C130.019 124.726 131.059 124.452 132.233 124.452C133.282 124.452 134.237 124.663 135.097 125.086C135.958 125.493 136.647 126.064 137.163 126.8L136.13 128.067C135.833 127.676 135.473 127.332 135.05 127.034C134.644 126.737 134.197 126.51 133.712 126.353C133.243 126.181 132.773 126.095 132.304 126.095C131.474 126.095 130.731 126.307 130.073 126.729C129.416 127.136 128.892 127.692 128.5 128.396C128.125 129.1 127.937 129.906 127.937 130.814C127.937 131.722 128.125 132.536 128.5 133.256C128.892 133.96 129.416 134.516 130.073 134.923C130.731 135.33 131.466 135.533 132.28 135.533C132.75 135.533 133.211 135.463 133.665 135.322C134.119 135.165 134.55 134.946 134.957 134.664C135.364 134.383 135.739 134.03 136.083 133.608L137.116 134.876C136.584 135.58 135.872 136.143 134.98 136.566C134.088 136.989 133.164 137.2 132.21 137.2ZM140.975 133.021L140.905 130.978L147.314 124.71H149.685L140.975 133.021ZM139.402 136.965V119.592H141.163V136.965H139.402ZM147.807 136.965L142.642 130.978L143.886 129.758L150.108 136.965H147.807ZM166.104 137.2C164.946 137.2 163.874 136.996 162.888 136.589C161.917 136.167 161.064 135.58 160.329 134.829C159.609 134.077 159.045 133.193 158.638 132.176C158.247 131.143 158.052 130.016 158.052 128.795C158.052 127.574 158.247 126.455 158.638 125.438C159.045 124.405 159.609 123.513 160.329 122.762C161.064 121.995 161.917 121.408 162.888 121.001C163.874 120.578 164.946 120.367 166.104 120.367C167.278 120.367 168.35 120.578 169.32 121.001C170.306 121.408 171.159 121.995 171.879 122.762C172.615 123.513 173.179 124.405 173.57 125.438C173.977 126.455 174.18 127.574 174.18 128.795C174.18 130 173.977 131.119 173.57 132.152C173.179 133.17 172.615 134.062 171.879 134.829C171.159 135.58 170.306 136.167 169.32 136.589C168.35 136.996 167.278 137.2 166.104 137.2ZM166.104 135.392C166.996 135.392 167.818 135.236 168.569 134.923C169.336 134.594 169.993 134.132 170.541 133.537C171.089 132.943 171.512 132.246 171.809 131.448C172.122 130.634 172.279 129.75 172.279 128.795C172.279 127.825 172.122 126.94 171.809 126.142C171.512 125.328 171.089 124.624 170.541 124.029C169.993 123.435 169.336 122.973 168.569 122.644C167.818 122.315 166.996 122.151 166.104 122.151C165.212 122.151 164.382 122.315 163.616 122.644C162.864 122.973 162.215 123.435 161.667 124.029C161.119 124.624 160.697 125.328 160.399 126.142C160.102 126.94 159.953 127.825 159.953 128.795C159.953 129.75 160.102 130.634 160.399 131.448C160.697 132.246 161.119 132.943 161.667 133.537C162.215 134.132 162.864 134.594 163.616 134.923C164.382 135.236 165.212 135.392 166.104 135.392ZM178.457 136.965V122.808C178.457 122.198 178.59 121.658 178.856 121.189C179.122 120.719 179.497 120.351 179.983 120.085C180.484 119.803 181.063 119.663 181.72 119.663C182.221 119.663 182.667 119.756 183.058 119.944C183.465 120.116 183.802 120.359 184.068 120.672L183.457 122.057C183.207 121.791 182.933 121.603 182.636 121.494C182.354 121.369 182.08 121.306 181.814 121.306C181.47 121.306 181.18 121.369 180.945 121.494C180.71 121.603 180.53 121.775 180.405 122.01C180.296 122.229 180.241 122.495 180.241 122.808V136.965H179.419C179.247 136.965 179.083 136.965 178.926 136.965C178.77 136.965 178.613 136.965 178.457 136.965ZM176.273 126.447V124.804H183.363V126.447H176.273ZM191.374 136.965L197.666 120.531H199.755L206 136.965H204.004L199.99 126.307C199.88 126.009 199.755 125.665 199.614 125.274C199.489 124.867 199.348 124.452 199.192 124.029C199.051 123.591 198.91 123.168 198.769 122.762C198.644 122.355 198.526 121.995 198.417 121.682H198.886C198.761 122.073 198.628 122.472 198.487 122.879C198.362 123.27 198.229 123.669 198.088 124.076C197.947 124.468 197.806 124.859 197.666 125.25C197.525 125.641 197.384 126.033 197.243 126.424L193.252 136.965H191.374ZM194.05 132.434L194.731 130.65H202.502L203.253 132.434H194.05ZM208.344 136.965V119.592H210.105V136.965H208.344ZM213.617 136.965V119.592H215.378V136.965H213.617ZM229.109 136.965V122.315H224.414V120.531H235.824V122.315H230.941V136.965H229.109ZM236.818 136.965V124.71H238.579L238.626 127.973L238.438 127.527C238.61 126.98 238.884 126.471 239.26 126.001C239.651 125.532 240.113 125.156 240.645 124.874C241.177 124.593 241.764 124.452 242.406 124.452C242.672 124.452 242.922 124.475 243.157 124.522C243.392 124.554 243.587 124.601 243.744 124.663L243.251 126.635C243.047 126.541 242.836 126.479 242.617 126.447C242.413 126.4 242.218 126.377 242.03 126.377C241.498 126.377 241.02 126.471 240.598 126.659C240.175 126.847 239.815 127.113 239.518 127.457C239.221 127.786 238.994 128.169 238.837 128.607C238.681 129.046 238.602 129.515 238.602 130.016V136.965H236.818ZM249.838 137.2C248.774 137.2 247.811 136.926 246.95 136.378C246.09 135.815 245.409 135.056 244.908 134.101C244.407 133.131 244.157 132.035 244.157 130.814C244.157 129.578 244.415 128.482 244.931 127.527C245.448 126.573 246.137 125.821 246.997 125.274C247.874 124.726 248.852 124.452 249.932 124.452C250.574 124.452 251.168 124.546 251.716 124.734C252.264 124.921 252.749 125.187 253.172 125.532C253.61 125.86 253.97 126.252 254.252 126.706C254.549 127.144 254.753 127.621 254.862 128.138L254.346 127.879L254.416 124.71H256.177V136.965H254.393V133.96L254.862 133.655C254.753 134.124 254.541 134.578 254.228 135.016C253.915 135.439 253.532 135.815 253.078 136.143C252.64 136.472 252.139 136.73 251.575 136.918C251.028 137.106 250.448 137.2 249.838 137.2ZM250.237 135.51C251.051 135.51 251.779 135.314 252.421 134.923C253.062 134.516 253.563 133.96 253.923 133.256C254.299 132.536 254.486 131.722 254.486 130.814C254.486 129.906 254.299 129.1 253.923 128.396C253.563 127.692 253.062 127.136 252.421 126.729C251.779 126.322 251.051 126.119 250.237 126.119C249.408 126.119 248.672 126.322 248.03 126.729C247.404 127.136 246.903 127.692 246.528 128.396C246.168 129.1 245.988 129.906 245.988 130.814C245.988 131.706 246.168 132.512 246.528 133.232C246.888 133.937 247.389 134.492 248.03 134.899C248.672 135.306 249.408 135.51 250.237 135.51ZM264.584 137.2C263.473 137.2 262.471 136.926 261.579 136.378C260.703 135.83 260.006 135.079 259.49 134.124C258.989 133.154 258.739 132.058 258.739 130.838C258.739 129.601 258.997 128.506 259.513 127.551C260.03 126.58 260.726 125.821 261.603 125.274C262.479 124.726 263.465 124.452 264.561 124.452C265.171 124.452 265.758 124.546 266.322 124.734C266.901 124.921 267.417 125.187 267.871 125.532C268.325 125.86 268.701 126.244 268.998 126.682C269.295 127.105 269.475 127.551 269.538 128.02L268.998 127.833V119.592H270.759V136.965H269.022L268.975 133.913L269.421 133.749C269.358 134.187 269.178 134.617 268.881 135.04C268.599 135.447 268.239 135.815 267.801 136.143C267.362 136.472 266.862 136.73 266.298 136.918C265.75 137.106 265.179 137.2 264.584 137.2ZM264.843 135.58C265.656 135.58 266.384 135.376 267.026 134.97C267.668 134.563 268.169 133.999 268.529 133.279C268.904 132.559 269.092 131.738 269.092 130.814C269.092 129.891 268.904 129.077 268.529 128.373C268.169 127.653 267.668 127.089 267.026 126.682C266.384 126.26 265.656 126.048 264.843 126.048C263.997 126.048 263.254 126.26 262.612 126.682C261.986 127.089 261.485 127.653 261.11 128.373C260.75 129.077 260.57 129.891 260.57 130.814C260.57 131.722 260.75 132.536 261.11 133.256C261.47 133.976 261.971 134.547 262.612 134.97C263.254 135.376 263.997 135.58 264.843 135.58ZM279.588 137.2C278.368 137.2 277.28 136.934 276.325 136.402C275.386 135.869 274.65 135.126 274.118 134.171C273.586 133.217 273.32 132.121 273.32 130.885C273.32 129.93 273.469 129.069 273.766 128.302C274.063 127.52 274.478 126.839 275.01 126.26C275.558 125.68 276.208 125.234 276.959 124.921C277.71 124.593 278.524 124.428 279.401 124.428C280.23 124.428 280.981 124.577 281.654 124.874C282.343 125.172 282.93 125.587 283.415 126.119C283.916 126.635 284.292 127.253 284.542 127.973C284.792 128.693 284.902 129.484 284.871 130.345L284.847 131.166H274.635L274.376 129.687H283.509L283.086 130.086V129.523C283.055 128.959 282.891 128.419 282.593 127.903C282.296 127.371 281.873 126.94 281.326 126.612C280.794 126.283 280.152 126.119 279.401 126.119C278.524 126.119 277.765 126.299 277.123 126.659C276.482 127.003 275.989 127.52 275.644 128.208C275.3 128.897 275.128 129.75 275.128 130.767C275.128 131.738 275.316 132.583 275.691 133.303C276.067 134.007 276.599 134.555 277.288 134.946C277.992 135.337 278.837 135.533 279.823 135.533C280.402 135.533 280.973 135.439 281.537 135.251C282.116 135.048 282.75 134.657 283.439 134.077L284.354 135.345C283.994 135.705 283.564 136.026 283.063 136.308C282.562 136.574 282.014 136.793 281.42 136.965C280.825 137.122 280.214 137.2 279.588 137.2ZM291.386 137.2C290.337 137.2 289.398 137.004 288.569 136.613C287.739 136.222 287.082 135.705 286.597 135.063L287.841 133.984C288.295 134.531 288.827 134.946 289.438 135.228C290.064 135.51 290.76 135.65 291.527 135.65C291.918 135.65 292.27 135.611 292.583 135.533C292.896 135.439 293.17 135.306 293.405 135.134C293.64 134.962 293.82 134.758 293.945 134.523C294.07 134.289 294.133 134.03 294.133 133.749C294.133 133.232 293.906 132.802 293.452 132.458C293.249 132.317 292.959 132.176 292.583 132.035C292.208 131.878 291.754 131.73 291.222 131.589C290.345 131.338 289.617 131.088 289.038 130.838C288.459 130.572 288.005 130.266 287.677 129.922C287.442 129.64 287.262 129.335 287.137 129.006C287.027 128.678 286.972 128.318 286.972 127.926C286.972 127.426 287.074 126.964 287.278 126.541C287.497 126.119 287.794 125.751 288.17 125.438C288.561 125.109 289.015 124.867 289.531 124.71C290.064 124.538 290.635 124.452 291.245 124.452C291.824 124.452 292.396 124.53 292.959 124.687C293.523 124.843 294.047 125.07 294.532 125.367C295.017 125.665 295.432 126.017 295.776 126.424L294.696 127.598C294.399 127.285 294.07 127.003 293.71 126.753C293.35 126.502 292.967 126.307 292.56 126.166C292.169 126.025 291.762 125.954 291.339 125.954C290.964 125.954 290.611 126.001 290.283 126.095C289.97 126.189 289.696 126.322 289.461 126.494C289.242 126.651 289.07 126.847 288.944 127.081C288.835 127.316 288.78 127.574 288.78 127.856C288.78 128.091 288.827 128.302 288.921 128.49C289.015 128.678 289.148 128.842 289.32 128.983C289.539 129.155 289.844 129.319 290.236 129.476C290.643 129.617 291.144 129.765 291.738 129.922C292.427 130.11 293.006 130.305 293.476 130.509C293.961 130.697 294.36 130.924 294.673 131.19C295.095 131.503 295.393 131.863 295.565 132.27C295.753 132.677 295.847 133.138 295.847 133.655C295.847 134.343 295.651 134.954 295.26 135.486C294.884 136.018 294.36 136.441 293.687 136.754C293.014 137.051 292.247 137.2 291.386 137.2Z" fill="white"/>
    <defs>
        <clipPath id="clip0_187_23124">
            <rect width="395.667" height="103.217" fill="white"/>
        </clipPath>
    </defs>
</svg>
