<svg width="16" height="16" viewBox="0 0 16 16" fill="none" xmlns="http://www.w3.org/2000/svg">
    <path fill-rule="evenodd" clip-rule="evenodd" d="M9 0.5C9.27614 0.5 9.5 0.723858 9.5 1V2.5C9.5 2.77614 9.27614 3 9 3C8.72386 3 8.5 2.77614 8.5 2.5V1C8.5 0.723858 8.72386 0.5 9 0.5ZM13.5 1C13.7761 1 14 1.22386 14 1.5L14 1.50105L14 1.50224L14 1.50506L13.9999 1.51237L13.9994 1.5335C13.9988 1.55039 13.9977 1.57284 13.9958 1.60008C13.9919 1.65438 13.9844 1.7287 13.9698 1.81657C13.9409 1.98995 13.8821 2.22875 13.7597 2.47361C13.6363 2.72042 13.4433 2.98245 13.1445 3.18165C12.8426 3.38294 12.4625 3.5 12 3.5C11.7125 3.5 11.5301 3.57044 11.4102 3.6504C11.2871 3.73245 11.1988 3.84542 11.1347 3.97361C11.0696 4.10375 11.0346 4.23995 11.0166 4.34782C11.0078 4.40058 11.0036 4.44345 11.0017 4.47117C11.0007 4.48495 11.0003 4.49472 11.0001 4.49981L11 4.50349C10.9981 4.77803 10.775 5 10.5 5C10.2239 5 10 4.77614 10 4.5V4.49895L10 4.49776L10 4.49494L10.0001 4.48763L10.0006 4.4665C10.0012 4.44961 10.0023 4.42716 10.0042 4.39992C10.0081 4.34562 10.0156 4.2713 10.0302 4.18343C10.0591 4.01005 10.1179 3.77125 10.2403 3.52639C10.3637 3.27958 10.5567 3.01755 10.8555 2.81835C11.1574 2.61706 11.5375 2.5 12 2.5C12.2875 2.5 12.4699 2.42956 12.5898 2.3496C12.7129 2.26755 12.8012 2.15458 12.8653 2.02639C12.9304 1.89625 12.9654 1.76005 12.9834 1.65218C12.9922 1.59942 12.9964 1.55655 12.9983 1.52883C12.9993 1.51505 12.9997 1.50528 12.9999 1.50019L13 1.49651C13.0019 1.22197 13.225 1 13.5 1ZM5.98633 2.9315C6.15096 2.89533 6.32205 2.90136 6.48372 2.94903C6.645 2.99658 6.79167 3.08402 6.91019 3.20327L6.91105 3.20414L12.7955 9.0886L12.7965 9.08959C12.9157 9.20809 13.0031 9.35472 13.0506 9.51594C13.0983 9.6776 13.1043 9.8487 13.0682 10.0133C13.032 10.1779 12.9548 10.3308 12.8438 10.4576C12.7327 10.5844 12.5914 10.681 12.433 10.7386L9.89389 11.661C9.87863 11.6674 9.86312 11.673 9.84742 11.6779L6.60909 12.8542C6.58375 12.8659 6.55763 12.8754 6.53103 12.8826L3.17989 14.1C3.00193 14.167 2.80844 14.1815 2.62239 14.1419C2.43473 14.1018 2.26268 14.0083 2.127 13.8727C1.99132 13.737 1.89782 13.5649 1.8578 13.3773C1.81811 13.1912 1.83268 12.9977 1.89971 12.8197L3.1173 9.46793C3.12443 9.44183 3.13371 9.4162 3.14514 9.39131L4.32371 6.14697C4.32756 6.13493 4.33189 6.12302 4.33668 6.11125L5.26103 3.5667C5.3186 3.40829 5.4153 3.26694 5.5421 3.1559C5.6689 3.04485 5.82171 2.96766 5.98633 2.9315ZM5.00179 7.20914L4.17946 9.47284L6.52682 11.8202L8.79052 10.9979L5.00179 7.20914ZM9.82789 10.621L5.37863 6.17177L6.20091 3.9082L6.20243 3.90973L12.0899 9.79723L12.0915 9.79874L9.82789 10.621ZM3.80262 10.5102L2.84025 13.1594L5.48945 12.197L3.80262 10.5102ZM14.8536 7.64645L13.8536 6.64645C13.6583 6.45118 13.3417 6.45118 13.1464 6.64645C12.9512 6.84171 12.9512 7.15829 13.1464 7.35355L14.1464 8.35355C14.3417 8.54882 14.6583 8.54882 14.8536 8.35355C15.0488 8.15829 15.0488 7.84171 14.8536 7.64645ZM15.4745 4.34178C15.5618 4.60375 15.4202 4.88691 15.1582 4.97423L13.6582 5.47423C13.3963 5.56156 13.1131 5.41998 13.0258 5.15801C12.9385 4.89603 13.0801 4.61287 13.342 4.52555L14.842 4.02555C15.104 3.93823 15.3872 4.07981 15.4745 4.34178Z" fill="current"/>
</svg>
