<svg width="16" height="16" viewBox="0 0 16 16" fill="none" xmlns="http://www.w3.org/2000/svg">
    <path fill-rule="evenodd" clip-rule="evenodd" d="M7.49996 1.5C7.77609 1.5 7.99994 1.72385 7.99994 1.99999V3L13.5 3C13.7761 3 13.9999 3.22385 13.9999 3.49999C13.9999 3.77612 13.7761 3.99997 13.5 3.99997L7.99994 3.99997V4.9999C7.99994 5.27604 7.77609 5.49989 7.49996 5.49989C7.22382 5.49989 6.99997 5.27604 6.99997 4.9999V1.99999C6.99997 1.72385 7.22382 1.5 7.49996 1.5ZM5.99994 3.49999C5.99994 3.77612 5.77609 3.99997 5.49996 3.99997H2.50004C2.22391 3.99997 2.00006 3.77612 2.00006 3.49999C2.00006 3.22385 2.22391 3 2.50004 3L5.49996 3C5.77609 3 5.99994 3.22385 5.99994 3.49999ZM8.99994 7.99974C8.99994 8.27588 8.77609 8.49973 8.49996 8.49973L2.50013 8.49973C2.22399 8.49973 2.00014 8.27588 2.00014 7.99974C2.00014 7.72361 2.22399 7.49976 2.50013 7.49976L8.49996 7.49976C8.77609 7.49976 8.99994 7.72361 8.99994 7.99974ZM13.9999 7.99974C13.9999 8.27588 13.7761 8.49973 13.5 8.49973L10.9999 8.49973V9.49966C10.9999 9.77579 10.7761 9.99964 10.5 9.99964C10.2238 9.99964 9.99997 9.77579 9.99997 9.49966V6.49974C9.99997 6.22361 10.2238 5.99976 10.5 5.99976C10.7761 5.99976 10.9999 6.22361 10.9999 6.49974V7.49976H13.5C13.7761 7.49976 13.9999 7.72361 13.9999 7.99974ZM3.49996 12.9997C3.77609 12.9997 3.99994 12.7759 3.99994 12.4997C3.99994 12.2236 3.77609 11.9998 3.49996 11.9998H2.49999C2.22385 11.9998 2 12.2236 2 12.4997C2 12.7759 2.22385 12.9997 2.49999 12.9997H3.49996ZM13.9999 12.4997C13.9999 12.7759 13.7761 12.9997 13.5 12.9997L5.99994 12.9997V13.9997C5.99994 14.2758 5.77609 14.4996 5.49996 14.4996C5.22382 14.4996 4.99997 14.2758 4.99997 13.9997V10.9997C4.99997 10.7236 5.22382 10.4998 5.49996 10.4998C5.77609 10.4998 5.99994 10.7236 5.99994 10.9997V11.9998H13.5C13.7761 11.9998 13.9999 12.2236 13.9999 12.4997Z" fill="white"/>
</svg>
