<svg width="16" height="16" viewBox="0 0 16 16" fill="none" xmlns="http://www.w3.org/2000/svg">
    <path fill-rule="evenodd" clip-rule="evenodd" d="M7.99983 3.46641C8.07347 3.46641 8.13316 3.40672 8.13316 3.33308C8.13316 3.25945 8.07347 3.19975 7.99983 3.19975C7.92619 3.19975 7.8665 3.25945 7.8665 3.33308C7.8665 3.40672 7.92619 3.46641 7.99983 3.46641ZM6.5332 3.33308C6.5332 2.52309 7.18983 1.86646 7.99983 1.86646C8.80982 1.86646 9.46645 2.52309 9.46645 3.33308C9.46645 4.14308 8.80982 4.79971 7.99983 4.79971C7.18983 4.79971 6.5332 4.14308 6.5332 3.33308ZM7.99983 8.13316C8.07346 8.13316 8.13316 8.07346 8.13316 7.99983C8.13316 7.92619 8.07346 7.8665 7.99983 7.8665C7.92619 7.8665 7.8665 7.92619 7.8665 7.99983C7.8665 8.07346 7.92619 8.13316 7.99983 8.13316ZM6.5332 7.99983C6.5332 7.18983 7.18983 6.5332 7.99983 6.5332C8.80982 6.5332 9.46645 7.18983 9.46645 7.99983C9.46645 8.80982 8.80982 9.46645 7.99983 9.46645C7.18983 9.46645 6.5332 8.80982 6.5332 7.99983ZM8.13316 12.6663C8.13316 12.74 8.07346 12.7997 7.99983 12.7997C7.92619 12.7997 7.8665 12.74 7.8665 12.6663C7.8665 12.5927 7.92619 12.533 7.99983 12.533C8.07346 12.533 8.13316 12.5927 8.13316 12.6663ZM7.99983 11.1997C7.18983 11.1997 6.5332 11.8563 6.5332 12.6663C6.5332 13.4763 7.18983 14.133 7.99983 14.133C8.80982 14.133 9.46645 13.4763 9.46645 12.6663C9.46645 11.8563 8.80982 11.1997 7.99983 11.1997Z" fill="white"/>
</svg>
