<svg width="16" height="16" viewBox="0 0 16 16" fill="none" xmlns="http://www.w3.org/2000/svg">
    <path fill-rule="evenodd" clip-rule="evenodd" d="M4.93642 9.95942C5.02444 10.2212 4.88361 10.5047 4.62187 10.5927C3.77434 10.8777 3.32391 11.5892 3.08298 12.3127C2.98731 12.6 2.92951 12.8766 2.89478 13.1053C3.12347 13.0705 3.40005 13.0127 3.68734 12.9171C4.41084 12.6761 5.12232 12.2257 5.40733 11.3782C5.49535 11.1164 5.77888 10.9756 6.04062 11.0636C6.30236 11.1516 6.44319 11.4352 6.35517 11.6969C5.92768 12.9681 4.87041 13.5771 4.00329 13.8658C3.56524 14.0117 3.15516 14.0837 2.85584 14.1196C2.70546 14.1377 2.58113 14.1468 2.4928 14.1515C2.44859 14.1538 2.41326 14.155 2.38804 14.1556C2.37543 14.1559 2.36533 14.1561 2.3579 14.1562L2.34877 14.1563L2.34574 14.1563L2.34461 14.1563L2.34415 14.1563C2.34394 14.1563 2.34375 14.1563 2.34375 13.6563C1.84375 13.6563 1.84375 13.6561 1.84375 13.6559L1.84375 13.6554L1.84375 13.6543L1.84377 13.6513L1.84385 13.6421C1.84394 13.6347 1.84411 13.6246 1.84442 13.612C1.84505 13.5868 1.84625 13.5514 1.84858 13.5072C1.85323 13.4189 1.86237 13.2946 1.88041 13.1442C1.91632 12.8449 1.98833 12.4348 2.13421 11.9968C2.42296 11.1296 3.03191 10.0724 4.30313 9.64487C4.56487 9.55685 4.8484 9.69768 4.93642 9.95942ZM2.34375 13.6563H1.84375C1.84375 13.9324 2.06761 14.1563 2.34375 14.1563V13.6563Z" fill="current"/>
    <path fill-rule="evenodd" clip-rule="evenodd" d="M13.2372 2.76296C12.6568 2.67925 11.2283 2.64772 9.76625 4.10973L5.87605 7.99993L8.0002 10.1241L11.8904 6.23388C13.3524 4.77187 13.3209 3.34332 13.2372 2.76296ZM13.3822 1.77352C12.584 1.65796 10.8048 1.65696 9.05914 3.40263L4.81539 7.64638C4.72162 7.74014 4.66895 7.86732 4.66895 7.99993C4.66895 8.13254 4.72162 8.25971 4.81539 8.35348L7.64664 11.1847C7.8419 11.38 8.15849 11.38 8.35375 11.1847L12.5975 6.94098C14.3432 5.19532 14.3422 3.41612 14.2266 2.61796C14.1974 2.40434 14.099 2.20613 13.9465 2.05363C13.794 1.90113 13.5958 1.80277 13.3822 1.77352Z" fill="current"/>
    <path fill-rule="evenodd" clip-rule="evenodd" d="M11.5376 6.7937C11.8137 6.7937 12.0376 7.01756 12.0376 7.2937V11.3312L12.0375 11.3383C12.0338 11.601 11.9269 11.8515 11.74 12.0359L9.7222 14.06C9.5941 14.1879 9.43368 14.2787 9.25804 14.3226C9.0824 14.3665 8.89813 14.3619 8.7249 14.3093C8.55167 14.2567 8.39597 14.158 8.27441 14.0239C8.15295 13.8898 8.07013 13.7253 8.03478 13.5479C8.03475 13.5477 8.0348 13.548 8.03478 13.5479L7.50985 10.9295C7.45557 10.6587 7.63106 10.3952 7.90181 10.341C8.17257 10.2867 8.43606 10.4622 8.49034 10.7329L9.0155 13.3524L11.0376 11.3241V7.2937C11.0376 7.01756 11.2615 6.7937 11.5376 6.7937Z" fill="current"/>
    <path fill-rule="evenodd" clip-rule="evenodd" d="M4.66158 3.96245L4.6687 3.9624H8.7062C8.98235 3.9624 9.2062 4.18626 9.2062 4.4624C9.2062 4.73854 8.98235 4.9624 8.7062 4.9624H4.67578L4.67173 4.96653L4.67171 4.9665L2.64746 6.9845L2.64824 6.98466L5.26699 7.50966C5.53774 7.56394 5.71323 7.82743 5.65895 8.09819C5.60467 8.36894 5.34118 8.54443 5.07042 8.49015L2.45245 7.9653C2.4523 7.96527 2.45215 7.96524 2.452 7.96521C2.2746 7.92986 2.11011 7.84704 1.97605 7.72559C1.84188 7.60403 1.74323 7.44833 1.69062 7.2751C1.638 7.10187 1.63341 6.9176 1.67732 6.74196C1.72123 6.56632 1.812 6.4059 1.93995 6.2778L1.9407 6.27705L1.9407 6.27705L3.96398 4.26001C4.14839 4.07311 4.39895 3.96619 4.66158 3.96245Z" fill="current"/>
</svg>
