<svg width="26" height="24" viewBox="0 0 26 24" fill="none" xmlns="http://www.w3.org/2000/svg">
    <path d="M23.8137 1L14.4355 7.95315L16.1773 3.85096L23.8137 1Z" fill="#E17726" stroke="#E17726" stroke-width="0.0492507" stroke-linecap="round" stroke-linejoin="round"/>
    <path d="M2.1875 1L11.4804 8.01896L9.82398 3.85096L2.1875 1Z" fill="#E27625" stroke="#E27625" stroke-width="0.0492507" stroke-linecap="round" stroke-linejoin="round"/>
    <path d="M20.4418 17.1193L17.947 20.9397L23.2853 22.4069L24.811 17.2036L20.4418 17.1193Z" fill="#E27625" stroke="#E27625" stroke-width="0.0492507" stroke-linecap="round" stroke-linejoin="round"/>
    <path d="M1.19922 17.2035L2.71557 22.4068L8.05387 20.9396L5.56835 17.1191L1.19922 17.2035Z" fill="#E27625" stroke="#E27625" stroke-width="0.0492507" stroke-linecap="round" stroke-linejoin="round"/>
    <path d="M7.76104 10.6628L6.27344 12.9123L11.5654 13.1477L11.3864 7.4541L7.76104 10.6628Z" fill="#E27625" stroke="#E27625" stroke-width="0.0492507" stroke-linecap="round" stroke-linejoin="round"/>
    <path d="M18.2399 10.6632L14.558 7.38867L14.4355 13.1481L19.7275 12.9126L18.2399 10.6632Z" fill="#E27625" stroke="#E27625" stroke-width="0.0492507" stroke-linecap="round" stroke-linejoin="round"/>
    <path d="M8.05273 20.9393L11.245 19.3859L8.49512 17.2412L8.05273 20.9393Z" fill="#E27625" stroke="#E27625" stroke-width="0.0492507" stroke-linecap="round" stroke-linejoin="round"/>
    <path d="M14.7559 19.3859L17.9481 20.9393L17.5057 17.2412L14.7559 19.3859Z" fill="#E27625" stroke="#E27625" stroke-width="0.0492507" stroke-linecap="round" stroke-linejoin="round"/>
    <path d="M17.9481 20.9391L14.7559 19.3857L15.01 21.4656L14.9822 22.3405L17.9481 20.9391Z" fill="#D5BFB2" stroke="#D5BFB2" stroke-width="0.0492507" stroke-linecap="round" stroke-linejoin="round"/>
    <path d="M8.05273 20.9391L11.0187 22.3405L11.0001 21.4656L11.245 19.3857L8.05273 20.9391Z" fill="#D5BFB2" stroke="#D5BFB2" stroke-width="0.0492507" stroke-linecap="round" stroke-linejoin="round"/>
    <path d="M11.0732 15.8663L8.41797 15.0859L10.2914 14.2295L11.0732 15.8663Z" fill="#233447" stroke="#233447" stroke-width="0.0492507" stroke-linecap="round" stroke-linejoin="round"/>
    <path d="M14.9258 15.8663L15.7076 14.2295L17.5903 15.0859L14.9258 15.8663Z" fill="#233447" stroke="#233447" stroke-width="0.0492507" stroke-linecap="round" stroke-linejoin="round"/>
    <path d="M8.0518 20.9397L8.51274 17.1193L5.56628 17.2036L8.0518 20.9397Z" fill="#CC6228" stroke="#CC6228" stroke-width="0.0492507" stroke-linecap="round" stroke-linejoin="round"/>
    <path d="M17.4883 17.1191L17.9492 20.9396L20.444 17.2035L17.4883 17.1191Z" fill="#CC6228" stroke="#CC6228" stroke-width="0.0492507" stroke-linecap="round" stroke-linejoin="round"/>
    <path d="M19.7275 12.9121L14.4355 13.1475L14.9252 15.8659L15.7071 14.2291L17.5897 15.0855L19.7275 12.9121Z" fill="#CC6228" stroke="#CC6228" stroke-width="0.0492507" stroke-linecap="round" stroke-linejoin="round"/>
    <path d="M8.42045 15.0855L10.2939 14.2291L11.0757 15.8659L11.5654 13.1475L6.27344 12.9121L8.42045 15.0855Z" fill="#CC6228" stroke="#CC6228" stroke-width="0.0492507" stroke-linecap="round" stroke-linejoin="round"/>
    <path d="M6.27344 12.9121L8.49557 17.2405L8.42045 15.0855L6.27344 12.9121Z" fill="#E27525" stroke="#E27525" stroke-width="0.0492507" stroke-linecap="round" stroke-linejoin="round"/>
    <path d="M17.5903 15.0855L17.5059 17.2405L19.728 12.9121L17.5903 15.0855Z" fill="#E27525" stroke="#E27525" stroke-width="0.0492507" stroke-linecap="round" stroke-linejoin="round"/>
    <path d="M11.5639 13.1484L11.0742 15.8669L11.6956 19.0756L11.8273 14.851L11.5639 13.1484Z" fill="#E27525" stroke="#E27525" stroke-width="0.0492507" stroke-linecap="round" stroke-linejoin="round"/>
    <path d="M14.4338 13.1484L14.1797 14.8418L14.3021 19.0756L14.9235 15.8669L14.4338 13.1484Z" fill="#E27525" stroke="#E27525" stroke-width="0.0492507" stroke-linecap="round" stroke-linejoin="round"/>
    <path d="M14.9261 15.8673L14.3047 19.076L14.7563 19.3865L17.5062 17.2418L17.5906 15.0869L14.9261 15.8673Z" fill="#F5841F" stroke="#F5841F" stroke-width="0.0492507" stroke-linecap="round" stroke-linejoin="round"/>
    <path d="M8.41797 15.0869L8.49309 17.2418L11.2429 19.3865L11.6946 19.076L11.0732 15.8673L8.41797 15.0869Z" fill="#F5841F" stroke="#F5841F" stroke-width="0.0492507" stroke-linecap="round" stroke-linejoin="round"/>
    <path d="M14.9825 22.3408L15.0103 21.4659L14.7757 21.2592H11.2255L11.0001 21.4659L11.0187 22.3408L8.05273 20.9395L9.08868 21.7857L11.1977 23.2445H14.8035L16.9125 21.7857L17.9484 20.9395L14.9825 22.3408Z" fill="#C0AC9D" stroke="#C0AC9D" stroke-width="0.0492507" stroke-linecap="round" stroke-linejoin="round"/>
    <path d="M14.7561 19.3857L14.3044 19.0752H11.6965L11.2448 19.3857L11 21.4655L11.2254 21.2588H14.7756L15.0102 21.4655L14.7561 19.3857Z" fill="#161616" stroke="#161616" stroke-width="0.0492507" stroke-linecap="round" stroke-linejoin="round"/>
    <path d="M24.2092 8.40545L25.0003 4.56648L23.8141 1L14.7559 7.71866L18.2402 10.6632L23.164 12.1035L24.2472 10.8328L23.7761 10.4945L24.5291 9.80683L23.9551 9.35546L24.7081 8.78175L24.2092 8.40545Z" fill="#763E1A" stroke="#763E1A" stroke-width="0.0492507" stroke-linecap="round" stroke-linejoin="round"/>
    <path d="M1 4.56648L1.80037 8.40545L1.29214 8.78175L2.04522 9.35546L1.47114 9.80683L2.22421 10.4945L1.75308 10.8328L2.83632 12.1035L7.76006 10.6632L11.2444 7.71866L2.18619 1L1 4.56648Z" fill="#763E1A" stroke="#763E1A" stroke-width="0.0492507" stroke-linecap="round" stroke-linejoin="round"/>
    <path d="M23.164 12.1034L18.2403 10.6631L19.7279 12.9126L17.5057 17.2409L20.4429 17.2029H24.8121L23.164 12.1034Z" fill="#F5841F" stroke="#F5841F" stroke-width="0.0492507" stroke-linecap="round" stroke-linejoin="round"/>
    <path d="M7.76173 10.6631L2.83799 12.1034L1.19922 17.2029H5.56835L8.49626 17.2409L6.27413 12.9125L7.76173 10.6631Z" fill="#F5841F" stroke="#F5841F" stroke-width="0.0492507" stroke-linecap="round" stroke-linejoin="round"/>
    <path d="M14.4373 13.1477L14.7572 7.71829L16.179 3.85059H9.82422L11.246 7.71829L11.5659 13.1477L11.6884 14.8596L11.6976 19.0749H14.3056L14.3148 14.8596L14.4373 13.1477Z" fill="#F5841F" stroke="#F5841F" stroke-width="0.0492507" stroke-linecap="round" stroke-linejoin="round"/>
</svg>
