<svg width="41" height="24" viewBox="0 0 41 24" fill="none" xmlns="http://www.w3.org/2000/svg">
    <g clip-path="url(#clip0_187_21123)">
        <path d="M11.9202 24C18.5036 24 23.8404 18.6274 23.8404 12C23.8404 5.37258 18.5036 0 11.9202 0C5.33686 0 0 5.37258 0 12C0 18.6274 5.33686 24 11.9202 24Z" fill="#F7931A"/>
        <path d="M17.2762 10.515C17.5101 8.943 16.3203 8.09775 14.6947 7.53375L15.2222 5.40375L13.9348 5.08125L13.4207 7.155C13.0825 7.0695 12.7353 6.99 12.3889 6.9105L12.9067 4.82325L11.6193 4.5L11.0918 6.62925C10.8117 6.56475 10.5361 6.50175 10.2693 6.43425L10.2708 6.4275L8.49472 5.98125L8.15201 7.36575C8.15201 7.36575 9.10786 7.58625 9.08775 7.59975C9.60926 7.731 9.70313 8.07825 9.68748 8.35425L9.087 10.7805C9.12276 10.7895 9.16896 10.803 9.22111 10.8232L9.08477 10.7895L8.2429 14.1885C8.17883 14.3475 8.01716 14.5867 7.65211 14.496C7.66552 14.5147 6.71637 14.2612 6.71637 14.2612L6.07715 15.7448L7.75343 16.1655C8.06484 16.2443 8.3703 16.3267 8.67054 16.404L8.13786 18.558L9.42449 18.8805L9.95196 16.7505C10.3036 16.8457 10.6448 16.9342 10.9786 17.0182L10.4526 19.1392L11.74 19.4618L12.2727 17.3123C14.469 17.7308 16.1199 17.562 16.815 15.5625C17.3753 13.953 16.7875 13.0238 15.6319 12.4185C16.4738 12.2235 17.1071 11.6663 17.2762 10.515ZM14.3334 14.6685C13.9363 16.2788 11.2431 15.408 10.3699 15.1898L11.0777 12.336C11.9508 12.5557 14.7499 12.99 14.3334 14.6685ZM14.732 10.4918C14.3692 11.9565 12.1281 11.2118 11.4018 11.0295L12.0425 8.442C12.7689 8.62425 15.1104 8.964 14.732 10.4918Z" fill="white"/>
    </g>
    <path fill-rule="evenodd" clip-rule="evenodd" d="M27.0599 13.0094C27.0819 12.6758 27.0931 12.3392 27.0931 12C27.0931 11.5213 27.0709 11.0478 27.0273 10.5805C27.2135 10.5686 27.4035 10.5582 27.5967 10.5495V12.5325C27.7859 12.546 28.3283 12.5782 29.0778 12.5782C29.977 12.5782 30.4278 12.5407 30.512 12.5332V10.551C33.4026 10.6807 35.5594 11.1885 35.5594 11.7945C35.5594 12.402 33.4026 12.9082 30.512 13.0372V13.0357C30.43 13.0417 30.0076 13.0672 29.0651 13.0672C28.3127 13.0672 27.783 13.0447 27.5967 13.0357V13.038C27.4148 13.0299 27.2357 13.0204 27.0599 13.0094ZM27.0069 10.3772C27.2003 10.3643 27.397 10.3532 27.5967 10.344V8.57022H26.7018C26.8388 9.15991 26.9413 9.76299 27.0069 10.3772ZM25.7936 5.86422H34.5455V8.57022H30.512V10.3447C33.7848 10.497 36.2441 11.1502 36.2441 11.9325C36.2441 12.7147 33.7848 13.368 30.512 13.5195V19.2075H27.5967V13.521C27.4017 13.5119 27.2096 13.5011 27.0207 13.4886C26.687 16.8986 25.2189 19.9732 23.0016 22.3249C24.7813 23.389 26.8597 24 29.0798 24C35.6632 24 41.0001 18.6274 41.0001 12C41.0001 5.37258 35.6632 0 29.0798 0C26.8597 0 24.7813 0.611011 23.0016 1.6751C24.1518 2.89497 25.1003 4.30938 25.7936 5.86422Z" fill="#26A17B"/>
    <mask id="mask0_187_21123" style="mask-type:alpha" maskUnits="userSpaceOnUse" x="21" y="5" width="16" height="15">
        <path fill-rule="evenodd" clip-rule="evenodd" d="M30.5121 13.0373V13.0358C30.4301 13.0418 30.0077 13.0673 29.0652 13.0673C28.3128 13.0673 27.7831 13.0448 27.5968 13.0358V13.038C24.7002 12.9098 22.5382 12.402 22.5382 11.7945C22.5382 11.1878 24.7002 10.68 27.5968 10.5495V12.5325C27.7861 12.546 28.3284 12.5783 29.0779 12.5783C29.9771 12.5783 30.4279 12.5408 30.5121 12.5333V10.551C33.4027 10.6808 35.5595 11.1885 35.5595 11.7945C35.5595 12.402 33.4027 12.9083 30.5121 13.0373ZM30.5121 10.3448V8.57026H34.5456V5.86426H23.5633V8.57026H27.5968V10.344C24.3188 10.4955 21.8535 11.1495 21.8535 11.9325C21.8535 12.7155 24.3188 13.3688 27.5968 13.521V19.2075H30.5121V13.5195C33.7849 13.368 36.2442 12.7148 36.2442 11.9325C36.2442 11.1503 33.7849 10.497 30.5121 10.3448Z" fill="white"/>
    </mask>
    <g mask="url(#mask0_187_21123)">
        <path fill-rule="evenodd" clip-rule="evenodd" d="M23.001 22.3249C25.5367 19.6355 27.0925 16.0007 27.0925 12C27.0925 7.99932 25.5367 4.36446 23.001 1.6751C24.7807 0.611011 26.8591 0 29.0792 0C35.6626 0 40.9995 5.37258 40.9995 12C40.9995 18.6274 35.6626 24 29.0792 24C26.8591 24 24.7807 23.389 23.001 22.3249Z" fill="white"/>
    </g>
    <defs>
        <clipPath id="clip0_187_21123">
            <rect width="23.8404" height="24" fill="white"/>
        </clipPath>
    </defs>
</svg>
