<svg width="41" height="24" viewBox="0 0 41 24" fill="none" xmlns="http://www.w3.org/2000/svg">
    <g clip-path="url(#clip0_187_21125)">
        <path d="M11.9212 24C18.5045 24 23.8414 18.6274 23.8414 12C23.8414 5.37258 18.5045 0 11.9212 0C5.33784 0 0.000976562 5.37258 0.000976562 12C0.000976562 18.6274 5.33784 24 11.9212 24Z"
              fill="#C3A634"/>
        <path fill-rule="evenodd" clip-rule="evenodd"
              d="M9.8699 10.9577H13.0839V12.6722H9.8699V16.2857H11.8971C12.6995 16.2857 13.3558 16.177 13.8669 15.958C14.378 15.7397 14.7788 15.4375 15.0701 15.0505C15.368 14.648 15.5708 14.1825 15.6631 13.6892C15.7708 13.1329 15.8232 12.5671 15.8196 12.0002C15.8232 11.4334 15.7708 10.8676 15.6631 10.3112C15.5709 9.81797 15.3681 9.35239 15.0701 8.94999C14.7788 8.56299 14.3772 8.26074 13.8669 8.04249C13.3558 7.82349 12.6995 7.71474 11.8971 7.71474H9.8699V10.9585V10.9577ZM7.80919 12.6722H6.70508V10.9585H7.80919V6.00024H12.6883C13.5897 6.00024 14.3698 6.15774 15.0291 6.47049C15.6885 6.78474 16.2264 7.21299 16.6443 7.75674C17.0615 8.29974 17.3722 8.93574 17.5756 9.66399C17.779 10.3922 17.8803 11.1715 17.8803 12.0002C17.8854 12.7894 17.7826 13.5755 17.5748 14.3365C17.3722 15.064 17.0615 15.7007 16.6436 16.2437C16.2264 16.7875 15.6885 17.2157 15.0291 17.53C14.3698 17.8435 13.589 18.0002 12.6883 18.0002H7.80919V12.6722Z"
              fill="white"/>
    </g>
    <path fill-rule="evenodd" clip-rule="evenodd"
          d="M27.0599 13.0094C27.0819 12.6758 27.0931 12.3392 27.0931 12C27.0931 11.5213 27.0709 11.0478 27.0273 10.5805C27.2135 10.5686 27.4035 10.5582 27.5967 10.5495V12.5325C27.7859 12.546 28.3283 12.5782 29.0778 12.5782C29.977 12.5782 30.4278 12.5407 30.512 12.5332V10.551C33.4026 10.6807 35.5594 11.1885 35.5594 11.7945C35.5594 12.402 33.4026 12.9082 30.512 13.0372V13.0357C30.43 13.0417 30.0076 13.0672 29.0651 13.0672C28.3127 13.0672 27.783 13.0447 27.5967 13.0357V13.038C27.4148 13.0299 27.2357 13.0204 27.0599 13.0094ZM27.0069 10.3772C27.2003 10.3643 27.397 10.3532 27.5967 10.344V8.57022H26.7018C26.8388 9.15991 26.9413 9.76299 27.0069 10.3772ZM25.7936 5.86422H34.5455V8.57022H30.512V10.3447C33.7848 10.497 36.2441 11.1502 36.2441 11.9325C36.2441 12.7147 33.7848 13.368 30.512 13.5195V19.2075H27.5967V13.521C27.4017 13.5119 27.2096 13.5011 27.0207 13.4886C26.687 16.8986 25.2189 19.9732 23.0016 22.3249C24.7813 23.389 26.8597 24 29.0798 24C35.6632 24 41 18.6274 41 12C41 5.37258 35.6632 0 29.0798 0C26.8597 0 24.7813 0.61101 23.0016 1.6751C24.1518 2.89497 25.1003 4.30938 25.7936 5.86422Z"
          fill="#26A17B"/>
    <mask id="mask0_187_21125" style="mask-type:alpha" maskUnits="userSpaceOnUse" x="21" y="5" width="16" height="15">
        <path fill-rule="evenodd" clip-rule="evenodd"
              d="M30.5121 13.0373V13.0358C30.4301 13.0418 30.0077 13.0673 29.0652 13.0673C28.3128 13.0673 27.7831 13.0448 27.5968 13.0358V13.038C24.7002 12.9098 22.5382 12.402 22.5382 11.7945C22.5382 11.1878 24.7002 10.68 27.5968 10.5495V12.5325C27.7861 12.546 28.3284 12.5783 29.0779 12.5783C29.9771 12.5783 30.4279 12.5408 30.5121 12.5333V10.551C33.4027 10.6808 35.5595 11.1885 35.5595 11.7945C35.5595 12.402 33.4027 12.9083 30.5121 13.0373ZM30.5121 10.3448V8.57026H34.5456V5.86426H23.5633V8.57026H27.5968V10.344C24.3188 10.4955 21.8535 11.1495 21.8535 11.9325C21.8535 12.7155 24.3188 13.3688 27.5968 13.521V19.2075H30.5121V13.5195C33.7849 13.368 36.2442 12.7148 36.2442 11.9325C36.2442 11.1503 33.7849 10.497 30.5121 10.3448Z"
              fill="white"/>
    </mask>
    <g mask="url(#mask0_187_21125)">
        <path fill-rule="evenodd" clip-rule="evenodd"
              d="M23.001 22.3249C25.5367 19.6355 27.0925 16.0007 27.0925 12C27.0925 7.99932 25.5367 4.36446 23.001 1.6751C24.7807 0.611011 26.8591 0 29.0792 0C35.6626 0 40.9995 5.37258 40.9995 12C40.9995 18.6274 35.6626 24 29.0792 24C26.8591 24 24.7807 23.389 23.001 22.3249Z"
              fill="white"/>
    </g>
    <defs>
        <clipPath id="clip0_187_21125">
            <rect width="23.8404" height="24" fill="white"/>
        </clipPath>
    </defs>
</svg>
