<svg width="42" height="24" viewBox="0 0 42 24" fill="none" xmlns="http://www.w3.org/2000/svg">
    <g clip-path="url(#clip0_187_21126)">
        <path d="M11.9183 24C18.5016 24 23.8385 18.6274 23.8385 12C23.8385 5.37258 18.5016 0 11.9183 0C5.33491 0 -0.00195312 5.37258 -0.00195312 12C-0.00195312 18.6274 5.33491 24 11.9183 24Z" fill="#328332"/>
        <path d="M11.911 12.4155L6.90376 11.9827L11.9103 9.13123V12.4155H11.911ZM11.911 15.7605V20.9655C10.1699 18.237 8.25075 15.234 6.7041 12.8032C8.52939 13.8382 10.4351 14.9205 11.911 15.7612V15.7605ZM11.911 8.20948L6.7041 11.1345L11.911 3.00073V8.20948Z" fill="white"/>
        <path d="M16.9184 11.9827L11.9111 12.4155V9.13123L16.9176 11.9827H16.9184ZM11.9111 15.7612C13.3863 14.9212 15.2913 13.8382 17.1173 12.8032C15.5706 15.2347 13.6515 18.2377 11.9111 20.9647V15.7612ZM11.9111 8.20948V3.00073L17.1173 11.1345L11.9111 8.20948Z" fill="white" fill-opacity="0.601"/>
        <path opacity="0.2" fill-rule="evenodd" clip-rule="evenodd" d="M11.9111 12.4154L16.9176 11.9827L11.9111 14.8139V12.4154Z" fill="white"/>
        <path opacity="0.603" fill-rule="evenodd" clip-rule="evenodd" d="M11.9106 12.4154L6.90332 11.9827L11.9106 14.8139V12.4154Z" fill="white"/>
    </g>
    <path fill-rule="evenodd" clip-rule="evenodd" d="M27.0602 13.0052C27.082 12.673 27.0931 12.3378 27.0931 12C27.0931 11.5227 27.071 11.0507 27.0277 10.5848C27.2361 10.571 27.4493 10.5592 27.6666 10.5495V12.5325C27.8571 12.546 28.4031 12.5782 29.1576 12.5782C30.0628 12.5782 30.5166 12.5407 30.6013 12.5332V10.551C33.5113 10.6807 35.6826 11.1885 35.6826 11.7945C35.6826 12.402 33.5113 12.9082 30.6013 13.0372V13.0357C30.5188 13.0417 30.0936 13.0672 29.1448 13.0672C28.3873 13.0672 27.8541 13.0447 27.6666 13.0357V13.038C27.4606 13.0289 27.2583 13.018 27.0602 13.0052ZM27.0074 10.3816C27.223 10.3668 27.4429 10.3542 27.6666 10.344V8.57022H26.7018C26.8392 9.16132 26.9418 9.76587 27.0074 10.3816ZM25.7936 5.86422H34.6618V8.57022H30.6013V10.3447C33.8961 10.497 36.3718 11.1502 36.3718 11.9325C36.3718 12.7147 33.8961 13.368 30.6013 13.5195V19.2075H27.6666V13.521C27.4477 13.5109 27.2323 13.4986 27.0211 13.4842C26.6889 16.8887 25.2261 19.9592 23.0156 22.31C24.8128 23.3833 26.9142 24 29.1596 24C35.787 24 41.1596 18.6274 41.1596 12C41.1596 5.37258 35.787 0 29.1596 0C26.9142 0 24.8128 0.616724 23.0156 1.69002C24.1595 2.9065 25.1032 4.31571 25.7936 5.86422Z" fill="#26A17B"/>
    <mask id="mask0_187_21126" style="mask-type:alpha" maskUnits="userSpaceOnUse" x="21" y="5" width="16" height="15">
        <path fill-rule="evenodd" clip-rule="evenodd" d="M30.5121 13.0373V13.0358C30.4301 13.0418 30.0077 13.0673 29.0652 13.0673C28.3128 13.0673 27.7831 13.0448 27.5968 13.0358V13.038C24.7002 12.9098 22.5382 12.402 22.5382 11.7945C22.5382 11.1878 24.7002 10.68 27.5968 10.5495V12.5325C27.7861 12.546 28.3284 12.5783 29.0779 12.5783C29.9771 12.5783 30.4279 12.5408 30.5121 12.5333V10.551C33.4027 10.6808 35.5595 11.1885 35.5595 11.7945C35.5595 12.402 33.4027 12.9083 30.5121 13.0373ZM30.5121 10.3448V8.57026H34.5456V5.86426H23.5633V8.57026H27.5968V10.344C24.3188 10.4955 21.8535 11.1495 21.8535 11.9325C21.8535 12.7155 24.3188 13.3688 27.5968 13.521V19.2075H30.5121V13.5195C33.7849 13.368 36.2442 12.7148 36.2442 11.9325C36.2442 11.1503 33.7849 10.497 30.5121 10.3448Z" fill="white"/>
    </mask>
    <g mask="url(#mask0_187_21126)">
        <path fill-rule="evenodd" clip-rule="evenodd" d="M23.001 22.3249C25.5367 19.6355 27.0925 16.0007 27.0925 12C27.0925 7.99932 25.5367 4.36446 23.001 1.6751C24.7807 0.611011 26.8591 0 29.0792 0C35.6626 0 40.9995 5.37258 40.9995 12C40.9995 18.6274 35.6626 24 29.0792 24C26.8591 24 24.7807 23.389 23.001 22.3249Z" fill="white"/>
    </g>
    <defs>
        <clipPath id="clip0_187_21126">
            <rect width="23.8404" height="24" fill="white"/>
        </clipPath>
    </defs>
</svg>
