<svg width="42" height="24" viewBox="0 0 42 24" fill="none" xmlns="http://www.w3.org/2000/svg">
    <g clip-path="url(#clip0_187_21132)">
        <path d="M11.9212 24C18.5045 24 23.8414 18.6274 23.8414 12C23.8414 5.37258 18.5045 0 11.9212 0C5.33784 0 0.000976562 5.37258 0.000976562 12C0.000976562 18.6274 5.33784 24 11.9212 24Z" fill="#66F9A1"/>
        <path d="M7.3946 14.7653C7.47697 14.6834 7.58807 14.6376 7.70378 14.6378H18.4066C18.4498 14.6372 18.4921 14.6496 18.5282 14.6735C18.5643 14.6973 18.5924 14.7315 18.609 14.7716C18.6256 14.8117 18.6299 14.8559 18.6213 14.8985C18.6127 14.9411 18.5917 14.9801 18.5609 15.0105L16.4465 17.1218C16.3643 17.2038 16.2532 17.2499 16.1373 17.25H5.43447C5.39132 17.2504 5.34905 17.2378 5.31305 17.2138C5.27706 17.1899 5.24899 17.1556 5.23243 17.1155C5.21586 17.0754 5.21157 17.0312 5.22009 16.9887C5.22861 16.9461 5.24956 16.907 5.28025 16.8765L7.3946 14.7653ZM7.3946 6.8775C7.47697 6.79569 7.58807 6.74988 7.70378 6.75H18.4066C18.6011 6.75 18.6987 6.9855 18.5609 7.1235L16.4465 9.23475C16.3641 9.31656 16.253 9.36238 16.1373 9.36225H5.43447C5.39148 9.36247 5.34939 9.34981 5.31356 9.32589C5.27773 9.30198 5.24977 9.26787 5.23324 9.22792C5.21671 9.18796 5.21235 9.14396 5.22072 9.10151C5.2291 9.05906 5.24982 9.02007 5.28025 8.9895L7.3946 6.8775ZM16.4465 10.7963C16.3641 10.7144 16.253 10.6686 16.1373 10.6688H5.43447C5.39132 10.6684 5.34905 10.681 5.31305 10.7049C5.27706 10.7289 5.24899 10.7631 5.23243 10.8032C5.21586 10.8433 5.21157 10.8875 5.22009 10.9301C5.22861 10.9727 5.24956 11.0117 5.28025 11.0423L7.3946 13.1535C7.47655 13.2353 7.5883 13.281 7.70378 13.281H18.4066C18.4498 13.2814 18.4921 13.2688 18.5281 13.2448C18.5641 13.2209 18.5921 13.1866 18.6087 13.1465C18.6253 13.1064 18.6295 13.0622 18.621 13.0197C18.6125 12.9771 18.5916 12.938 18.5609 12.9075L16.4465 10.7963Z" fill="#121417"/>
    </g>
    <path fill-rule="evenodd" clip-rule="evenodd" d="M27.0602 13.0052C27.082 12.673 27.0931 12.3378 27.0931 12C27.0931 11.5227 27.071 11.0507 27.0277 10.5848C27.2361 10.571 27.4493 10.5592 27.6666 10.5495V12.5325C27.8571 12.546 28.4031 12.5782 29.1576 12.5782C30.0628 12.5782 30.5166 12.5407 30.6013 12.5332V10.551C33.5113 10.6807 35.6826 11.1885 35.6826 11.7945C35.6826 12.402 33.5113 12.9082 30.6013 13.0372V13.0357C30.5188 13.0417 30.0936 13.0672 29.1448 13.0672C28.3873 13.0672 27.8541 13.0447 27.6666 13.0357V13.038C27.4606 13.0289 27.2583 13.018 27.0602 13.0052ZM27.0074 10.3816C27.223 10.3668 27.4429 10.3542 27.6666 10.344V8.57022H26.7018C26.8392 9.16132 26.9418 9.76587 27.0074 10.3816ZM25.7936 5.86422H34.6618V8.57022H30.6013V10.3447C33.8961 10.497 36.3718 11.1502 36.3718 11.9325C36.3718 12.7147 33.8961 13.368 30.6013 13.5195V19.2075H27.6666V13.521C27.4477 13.5109 27.2323 13.4986 27.0211 13.4842C26.6889 16.8887 25.2261 19.9592 23.0156 22.31C24.8128 23.3833 26.9142 24 29.1596 24C35.787 24 41.1596 18.6274 41.1596 12C41.1596 5.37258 35.787 0 29.1596 0C26.9142 0 24.8128 0.616724 23.0156 1.69002C24.1595 2.9065 25.1032 4.31571 25.7936 5.86422Z" fill="#26A17B"/>
    <mask id="mask0_187_21132" style="mask-type:alpha" maskUnits="userSpaceOnUse" x="21" y="5" width="16" height="15">
        <path fill-rule="evenodd" clip-rule="evenodd" d="M30.5121 13.0373V13.0358C30.4301 13.0418 30.0077 13.0673 29.0652 13.0673C28.3128 13.0673 27.7831 13.0448 27.5968 13.0358V13.038C24.7002 12.9098 22.5382 12.402 22.5382 11.7945C22.5382 11.1878 24.7002 10.68 27.5968 10.5495V12.5325C27.7861 12.546 28.3284 12.5783 29.0779 12.5783C29.9771 12.5783 30.4279 12.5408 30.5121 12.5333V10.551C33.4027 10.6808 35.5595 11.1885 35.5595 11.7945C35.5595 12.402 33.4027 12.9083 30.5121 13.0373ZM30.5121 10.3448V8.57026H34.5456V5.86426H23.5633V8.57026H27.5968V10.344C24.3188 10.4955 21.8535 11.1495 21.8535 11.9325C21.8535 12.7155 24.3188 13.3688 27.5968 13.521V19.2075H30.5121V13.5195C33.7849 13.368 36.2442 12.7148 36.2442 11.9325C36.2442 11.1503 33.7849 10.497 30.5121 10.3448Z" fill="white"/>
    </mask>
    <g mask="url(#mask0_187_21132)">
        <path fill-rule="evenodd" clip-rule="evenodd" d="M23.001 22.3249C25.5367 19.6355 27.0925 16.0007 27.0925 12C27.0925 7.99932 25.5367 4.36446 23.001 1.6751C24.7807 0.611011 26.8591 0 29.0792 0C35.6626 0 40.9995 5.37258 40.9995 12C40.9995 18.6274 35.6626 24 29.0792 24C26.8591 24 24.7807 23.389 23.001 22.3249Z" fill="white"/>
    </g>
    <defs>
        <clipPath id="clip0_187_21132">
            <rect width="23.8404" height="24" fill="white"/>
        </clipPath>
    </defs>
</svg>
